<svg xmlns="http://www.w3.org/2000/svg" xmlns:xlink="http://www.w3.org/1999/xlink" width="500" zoomAndPan="magnify" viewBox="0 0 375 374.999991" height="500" preserveAspectRatio="xMidYMid meet" version="1.0"><defs><clipPath id="cd127077d1"><path d="M 61.378906 94.359375 L 213.628906 94.359375 L 213.628906 280.359375 L 61.378906 280.359375 Z M 61.378906 94.359375 " clip-rule="nonzero"/></clipPath><clipPath id="b36ad5e84e"><path d="M 168.175781 94.359375 L 313.675781 94.359375 L 313.675781 280.359375 L 168.175781 280.359375 Z M 168.175781 94.359375 " clip-rule="nonzero"/></clipPath></defs><rect x="-37.5" width="450" fill="#ffffff" y="-37.499999" height="449.999989" fill-opacity="1"/><rect x="-37.5" width="450" fill="#ffffff" y="-37.499999" height="449.999989" fill-opacity="1"/><rect x="-37.5" width="450" fill="#ffffff" y="-37.499999" height="449.999989" fill-opacity="1"/><g clip-path="url(#cd127077d1)"><path fill="#7ed957" d="M 195.53125 159.28125 C 196.460938 155.527344 196.90625 151.65625 196.90625 147.789062 C 196.941406 118.335938 170.261719 94.382812 137.484375 94.382812 C 104.707031 94.382812 78.0625 118.335938 78.0625 147.789062 C 78.0625 151.65625 78.546875 155.488281 79.4375 159.28125 C 68.066406 166.980469 61.378906 178.957031 61.378906 191.898438 C 61.378906 214.398438 81.707031 232.695312 106.679688 232.695312 L 135.777344 232.695312 L 135.777344 276.617188 C 135.777344 278.664062 137.449219 280.335938 139.492188 280.335938 C 141.535156 280.335938 143.207031 278.664062 143.207031 276.617188 L 143.207031 232.660156 L 168.328125 232.660156 C 193.300781 232.660156 213.589844 214.359375 213.589844 191.859375 C 213.628906 178.957031 206.902344 166.980469 195.53125 159.28125 Z M 168.328125 225.21875 L 143.207031 225.21875 L 143.207031 176.128906 L 164.984375 155.933594 C 166.507812 154.523438 166.582031 152.179688 165.171875 150.691406 C 163.757812 149.167969 161.417969 149.09375 159.929688 150.503906 L 143.207031 166.011719 L 143.207031 138.605469 C 143.207031 136.558594 141.535156 134.886719 139.492188 134.886719 C 137.449219 134.886719 135.777344 136.558594 135.777344 138.605469 L 135.777344 190.894531 L 119.054688 175.386719 C 117.53125 173.972656 115.1875 174.082031 113.8125 175.570312 C 112.402344 177.097656 112.511719 179.4375 114 180.816406 L 135.777344 201.007812 L 135.777344 225.257812 L 106.679688 225.257812 C 85.792969 225.21875 68.8125 210.269531 68.8125 191.898438 C 68.8125 180.742188 75.089844 170.363281 85.644531 164.152344 C 87.132812 163.261719 87.800781 161.511719 87.316406 159.839844 C 86.089844 155.898438 85.496094 151.84375 85.496094 147.789062 C 85.496094 122.464844 108.832031 101.824219 137.484375 101.824219 C 166.171875 101.824219 189.472656 122.464844 189.472656 147.789062 C 189.472656 151.84375 188.878906 155.898438 187.652344 159.839844 C 187.132812 161.476562 187.839844 163.261719 189.324219 164.152344 C 199.878906 170.363281 206.160156 180.742188 206.160156 191.898438 C 206.195312 210.269531 189.214844 225.21875 168.328125 225.21875 Z M 168.328125 225.21875 " fill-opacity="1" fill-rule="nonzero"/></g><g clip-path="url(#b36ad5e84e)"><path fill="#008037" d="M 313.675781 167.210938 C 313.675781 127.175781 281.035156 94.597656 240.925781 94.597656 C 200.8125 94.597656 168.175781 127.175781 168.175781 167.210938 C 168.175781 206.320312 199.289062 238.304688 238.136719 239.753906 L 238.136719 276.414062 C 238.136719 278.453125 239.808594 280.125 241.855469 280.125 C 243.898438 280.125 245.570312 278.453125 245.570312 276.414062 L 245.570312 239.679688 C 283.527344 237.269531 313.675781 205.691406 313.675781 167.210938 Z M 245.570312 232.257812 L 245.570312 193.964844 L 262.933594 177.9375 C 264.457031 176.527344 264.53125 174.1875 263.117188 172.703125 C 261.707031 171.183594 259.363281 171.109375 257.875 172.519531 L 245.570312 183.871094 L 245.570312 144.355469 C 245.570312 142.316406 243.898438 140.644531 241.855469 140.644531 C 239.808594 140.644531 238.136719 142.316406 238.136719 144.355469 L 238.136719 163.5 L 226.242188 152.480469 C 224.71875 151.070312 222.375 151.183594 221 152.667969 C 219.585938 154.1875 219.699219 156.527344 221.183594 157.898438 L 238.136719 173.558594 L 238.136719 232.296875 C 203.417969 230.886719 175.609375 202.238281 175.609375 167.210938 C 175.609375 131.257812 204.902344 102.019531 240.925781 102.019531 C 276.945312 102.019531 306.238281 131.257812 306.238281 167.210938 C 306.238281 201.609375 279.4375 229.847656 245.570312 232.257812 Z M 245.570312 232.257812 " fill-opacity="1" fill-rule="nonzero"/></g></svg>